<?xml version="1.0" standalone="no"?>
<!DOCTYPE svg PUBLIC "-//W3C//DTD SVG 20010904//EN"
 "http://www.w3.org/TR/2001/REC-SVG-20010904/DTD/svg10.dtd">
<svg version="1.0" xmlns="http://www.w3.org/2000/svg"
 width="96.000000pt" height="96.000000pt" viewBox="0 0 96.000000 96.000000"
 preserveAspectRatio="xMidYMid meet">

<g transform="translate(0.000000,96.000000) scale(0.100000,-0.100000)"
fill="#000000" stroke="none">
<path d="M338 937 c-160 -55 -270 -176 -303 -333 -7 -36 -19 -72 -26 -80 -10
-12 -10 -20 3 -42 8 -15 18 -46 22 -69 16 -105 122 -251 224 -306 229 -125
513 -35 628 199 20 40 39 93 41 118 3 25 12 51 19 57 18 15 18 33 0 48 -7 6
-16 34 -19 61 -13 108 -98 233 -205 301 -111 70 -260 88 -384 46z m201 -11
c15 -13 49 -31 78 -40 73 -24 157 -90 204 -159 21 -33 39 -64 39 -71 0 -6 -13
12 -30 40 -53 93 -208 203 -249 177 -28 -18 -19 -47 22 -65 47 -23 49 -32 1
-12 -50 21 -61 33 -56 66 6 37 -30 78 -68 78 -38 0 -74 -41 -68 -78 5 -34 0
-39 -74 -75 -35 -17 -76 -49 -104 -80 -25 -29 -41 -43 -36 -31 19 36 91 98
144 124 55 26 69 53 37 73 -23 14 -116 -31 -174 -84 -26 -24 -60 -66 -76 -94
-16 -27 -29 -45 -29 -39 0 6 18 38 39 71 46 71 129 135 208 160 29 9 63 27 75
40 29 31 83 31 117 -1z m-143 -5 c-3 -4 -26 -14 -52 -21 -58 -16 -149 -75
-192 -124 -17 -20 -43 -59 -57 -86 -30 -60 -39 -65 -18 -11 36 91 140 193 238
231 53 20 90 26 81 11z m283 -28 c70 -34 159 -124 194 -197 16 -32 27 -60 24
-62 -2 -3 -17 21 -32 52 -48 99 -175 200 -275 220 -16 4 -30 11 -30 17 0 14
57 0 119 -30z m-213 5 c-11 -16 -12 -26 -5 -40 12 -23 6 -33 -16 -25 -32 13
-13 87 23 87 11 0 10 -4 -2 -22z m211 -176 c-4 -19 -17 -46 -29 -60 -13 -14
-17 -22 -10 -18 6 4 12 2 12 -4 0 -6 -16 -20 -35 -31 -36 -22 -46 -33 -20 -23
8 4 15 2 15 -2 0 -14 -63 -74 -79 -75 -11 0 -10 -3 4 -8 18 -7 17 -9 -10 -24
-17 -8 -29 -19 -27 -23 2 -5 -1 -10 -7 -12 -19 -6 -12 37 13 76 13 20 49 68
80 105 31 38 56 71 56 73 0 10 -166 -170 -197 -214 -29 -39 -33 -42 -32 -21 0
25 17 72 19 54 0 -5 7 5 15 23 20 46 117 145 127 129 6 -9 8 -8 8 2 0 8 18 33
40 57 22 24 40 49 40 56 0 7 5 5 11 -6 6 -10 9 -34 6 -54z m-209 34 c22 -1 72
-40 72 -55 0 -8 -5 -9 -19 -1 -30 16 -36 12 -16 -10 10 -11 13 -20 7 -20 -7 0
-12 5 -12 10 0 6 -7 10 -16 10 -9 0 -23 8 -29 17 -12 17 -14 17 -34 -1 -26
-24 -28 -81 -4 -116 16 -24 16 -24 -2 -10 -58 47 -44 159 20 160 18 1 19 1 3
11 -10 5 -18 15 -18 21 0 7 6 6 15 -2 9 -7 23 -13 33 -14z m293 -78 c16 -29 5
-21 -36 30 -35 43 -36 45 -6 17 18 -16 37 -38 42 -47z m-390 -69 c9 -5 10 -9
2 -9 -6 0 -15 5 -18 10 -4 6 -11 8 -16 5 -5 -4 -9 2 -9 11 0 30 -13 6 -21 -39
l-8 -42 3 50 c1 29 11 63 22 80 l19 29 6 -43 c3 -23 12 -47 20 -52z m52 60
c-4 -12 3 -32 16 -49 24 -33 13 -49 -12 -19 -17 19 -23 70 -10 82 10 11 11 8
6 -14z m-130 -53 c-3 -30 -1 -68 5 -84 9 -26 8 -31 -6 -35 -12 -3 -9 -6 11
-11 15 -5 27 -15 27 -25 0 -9 12 -33 26 -54 16 -24 23 -45 19 -57 -5 -17 -12
-19 -53 -13 -26 3 -49 8 -52 10 -2 2 -6 76 -8 163 -4 156 -4 160 16 160 19 0
20 -4 15 -54z m407 -50 c0 -56 -3 -131 -6 -165 -7 -58 -8 -61 -33 -61 -15 0
-50 -6 -78 -13 -42 -11 -50 -11 -46 0 3 7 -1 13 -8 13 -8 0 5 11 27 25 37 22
74 74 74 103 0 5 12 13 28 17 l27 8 -24 6 c-17 5 -28 17 -34 40 -7 28 -4 40
17 72 14 21 26 43 26 49 0 5 7 10 15 10 12 0 15 -18 15 -104z m-479 71 c-6 -8
-12 -76 -14 -173 l-3 -159 -2 173 c-2 153 0 172 14 172 13 0 14 -3 5 -13z
m261 -19 c-9 -9 -12 -7 -12 12 0 19 3 21 12 12 9 -9 9 -15 0 -24z m276 -140
l-2 -173 -3 159 c-2 97 -8 165 -14 173 -9 10 -8 13 5 13 14 0 16 -19 14 -172z
m-508 25 c0 -93 -3 -133 -10 -123 -17 27 -12 260 6 260 2 0 4 -62 4 -137z
m480 0 c0 -64 -4 -114 -10 -118 -6 -4 -10 41 -10 127 0 90 3 128 10 118 5 -8
10 -65 10 -127z m-559 86 c-6 -16 -10 -18 -10 -7 -1 22 12 55 16 42 2 -6 -1
-22 -6 -35z m655 -83 c13 -26 13 -28 -1 -16 -13 11 -15 9 -16 -11 -1 -13 -5 3
-9 36 -4 33 -10 74 -13 90 -4 17 0 8 8 -20 9 -27 22 -63 31 -79z m-331 15
c-19 -27 -53 -87 -75 -135 -22 -47 -42 -86 -44 -86 -15 0 77 183 116 233 42
53 44 46 3 -12z m-336 -18 c-1 -32 -4 -47 -6 -33 -3 14 -17 38 -31 55 -15 17
-18 22 -6 12 27 -22 34 -22 34 3 0 11 2 20 5 20 3 0 4 -26 4 -57z m256 47 c3
-5 1 -10 -4 -10 -6 0 -11 5 -11 10 0 6 2 10 4 10 3 0 8 -4 11 -10z m205 -26
c0 -8 -4 -12 -10 -9 -5 3 -10 13 -10 21 0 8 5 12 10 9 6 -3 10 -13 10 -21z
m-260 7 c0 -6 -4 -13 -10 -16 -5 -3 -10 1 -10 9 0 9 5 16 10 16 6 0 10 -4 10
-9z m530 -1 c0 -5 -2 -10 -4 -10 -3 0 -8 5 -11 10 -3 6 -1 10 4 10 6 0 11 -4
11 -10z m-485 -30 c-3 -5 -23 -10 -43 -9 -33 1 -34 2 -12 9 36 12 62 12 55 0z
m224 -6 c2 -2 -12 -4 -33 -4 -22 0 -35 4 -31 10 5 9 52 4 64 -6z m-489 2 c0
-2 -8 -10 -17 -17 -16 -13 -17 -12 -4 4 13 16 21 21 21 13z m230 -63 c21 -35
21 -37 2 -20 -17 16 -37 57 -27 57 2 0 13 -17 25 -37z m235 7 c-9 -16 -17 -30
-19 -30 -3 0 1 14 7 30 6 17 15 30 19 30 5 0 2 -13 -7 -30z m-61 4 c3 -8 2
-12 -4 -9 -6 3 -10 10 -10 16 0 14 7 11 14 -7z m-64 -66 c0 -36 -4 -35 -14 5
-4 16 -2 27 4 27 5 0 10 -14 10 -32z m90 17 c0 -2 -10 -9 -22 -15 -22 -11 -22
-10 -4 4 21 17 26 19 26 11z m-123 -53 c9 -6 7 -11 -7 -20 -17 -11 -20 -10
-20 8 0 21 7 25 27 12z"/>
</g>
</svg>
